<svg width="236.893" height="236.893" xmlns="http://www.w3.org/2000/svg">

 <g>
  <title>background</title>
  <rect fill="none" id="canvas_background" height="402" width="582" y="-1" x="-1"/>
 </g>
 <g>
  <title>Logo</title>
  <g id="svg_1">
   <path fill="#ffffff" id="svg_2" d="m221.323,75.235c-8.586,0 -15.563,6.984 -15.563,15.564c0,3.361 1.102,6.46 2.929,9.003l-29.417,18.672l-7.728,-16.751c-1.09,-2.356 -3.872,-3.353 -6.198,-2.281l-19.474,8.954c-0.693,0.323 -1.229,0.816 -1.687,1.382l-20.097,-30.248c5.787,-2.268 9.903,-7.873 9.903,-14.452c0,-8.58 -6.978,-15.558 -15.558,-15.558c-8.58,0 -15.558,6.978 -15.558,15.558c0,6.591 4.122,12.184 9.907,14.452l-20.094,30.248c-0.445,-0.566 -0.98,-1.06 -1.684,-1.382l-19.467,-8.954c-2.332,-1.059 -5.112,-0.07 -6.199,2.281l-7.901,17.08l-29.259,-18.995c1.833,-2.549 2.938,-5.648 2.938,-9.021c0,-8.58 -6.978,-15.563 -15.558,-15.563s-15.558,6.983 -15.558,15.563c0,8.58 6.979,15.558 15.558,15.558c1.635,0 3.172,-0.325 4.652,-0.791l37.984,60.282c0.868,1.357 2.35,2.192 3.961,2.192l112.58,0c1.607,0 3.105,-0.835 3.958,-2.192l37.983,-60.282c1.486,0.466 3.021,0.791 4.652,0.791c8.586,0 15.564,-6.978 15.564,-15.558c0.001,-8.58 -6.996,-15.552 -15.569,-15.552zm-71.554,41.671l15.223,-7.002l6.297,13.637l-12.623,8.02l-9.64,-14.471c0.256,-0.077 0.5,-0.071 0.743,-0.184zm-31.329,-58.038c3.422,0 6.205,2.789 6.205,6.211c0,3.431 -2.776,6.205 -6.205,6.205c-3.422,0 -6.205,-2.774 -6.205,-6.205c-0.006,-3.416 2.783,-6.211 6.205,-6.211zm-46.564,51.036l15.22,7.002c0.238,0.113 0.484,0.113 0.734,0.17l-9.968,14.988l-12.498,-8.11l6.512,-14.05zm-62.529,-19.105c0,-3.422 2.783,-6.211 6.205,-6.211c3.422,0 6.205,2.789 6.205,6.211c0,3.431 -2.783,6.205 -6.205,6.205c-3.422,-0.001 -6.205,-2.774 -6.205,-6.205zm162.793,67.888l-107.418,0l-25.574,-40.59l37.503,24.333c2.165,1.395 5.033,0.797 6.442,-1.34l35.335,-53.158l34.97,52.61c1.407,2.118 4.257,2.733 6.394,1.364l38.167,-24.227l-25.819,41.008zm49.183,-61.677c-3.422,0 -6.211,-2.773 -6.211,-6.205c0,-3.422 2.789,-6.211 6.211,-6.211s6.198,2.789 6.198,6.211c0,3.425 -2.776,6.205 -6.198,6.205zm-41.529,85.687c0,2.575 -2.095,4.676 -4.676,4.676l-113.356,0c-2.582,0 -4.676,-2.101 -4.676,-4.676c0,-2.582 2.095,-4.677 4.676,-4.677l113.356,0c2.582,0 4.676,2.095 4.676,4.677z"/>
  </g>
  <g id="svg_3"/>
  <g id="svg_4"/>
  <g id="svg_5"/>
  <g id="svg_6"/>
  <g id="svg_7"/>
  <g id="svg_8"/>
  <g id="svg_9"/>
  <g id="svg_10"/>
  <g id="svg_11"/>
  <g id="svg_12"/>
  <g id="svg_13"/>
  <g id="svg_14"/>
  <g id="svg_15"/>
  <g id="svg_16"/>
  <g id="svg_17"/>
 </g>
</svg>